<svg viewBox="0 0 330 200" xmlns="http://www.w3.org/2000/svg"><g><g><g><g><g><line x1="50" y1="178" x2="45" y2="178" style="visibility: inherit;" fill="rgb(0, 0, 0)" stroke="rgb(204, 204, 204)" stroke-width="1px"></line><line x1="50" y1="161.8181818181818" x2="45" y2="161.8181818181818" style="visibility: inherit;" fill="rgb(0, 0, 0)" stroke="rgb(204, 204, 204)" stroke-width="1px"></line><line x1="50" y1="145.63636363636365" x2="45" y2="145.63636363636365" style="visibility: inherit;" fill="rgb(0, 0, 0)" stroke="rgb(204, 204, 204)" stroke-width="1px"></line><line x1="50" y1="129.45454545454544" x2="45" y2="129.45454545454544" style="visibility: inherit;" fill="rgb(0, 0, 0)" stroke="rgb(204, 204, 204)" stroke-width="1px"></line><line x1="50" y1="113.2727272727273" x2="45" y2="113.2727272727273" style="visibility: inherit;" fill="rgb(0, 0, 0)" stroke="rgb(204, 204, 204)" stroke-width="1px"></line><line x1="50" y1="97.0909090909091" x2="45" y2="97.0909090909091" style="visibility: inherit;" fill="rgb(0, 0, 0)" stroke="rgb(204, 204, 204)" stroke-width="1px"></line><line x1="50" y1="80.90909090909089" x2="45" y2="80.90909090909089" style="visibility: inherit;" fill="rgb(0, 0, 0)" stroke="rgb(204, 204, 204)" stroke-width="1px"></line><line x1="50" y1="64.72727272727275" x2="45" y2="64.72727272727275" style="visibility: inherit;" fill="rgb(0, 0, 0)" stroke="rgb(204, 204, 204)" stroke-width="1px"></line><line x1="50" y1="48.54545454545453" x2="45" y2="48.54545454545453" style="visibility: inherit;" fill="rgb(0, 0, 0)" stroke="rgb(204, 204, 204)" stroke-width="1px"></line><line x1="50" y1="32.3636363636364" x2="45" y2="32.3636363636364" style="visibility: inherit;" fill="rgb(0, 0, 0)" stroke="rgb(204, 204, 204)" stroke-width="1px"></line><line x1="50" y1="16.181818181818187" x2="45" y2="16.181818181818187" style="visibility: inherit;" fill="rgb(0, 0, 0)" stroke="rgb(204, 204, 204)" stroke-width="1px"></line><line x1="50" y1="0" x2="45" y2="0" style="visibility: inherit;" fill="rgb(0, 0, 0)" stroke="rgb(204, 204, 204)" stroke-width="1px"></line></g><g transform="translate(40, 0)"><text x="0" y="178" dx="0em" dy="0.3em" style="text-anchor: end; visibility: hidden; font-family: &quot;Helvetica Neue&quot;, sans-serif; font-size: 12px; font-weight: 200;" fill="rgb(50, 49, 63)" stroke="none" stroke-width="1px">0.5</text><text x="0" y="161.8181818181818" dx="0em" dy="0.3em" style="text-anchor: end; visibility: inherit; font-family: &quot;Helvetica Neue&quot;, sans-serif; font-size: 12px; font-weight: 200;" fill="rgb(50, 49, 63)" stroke="none" stroke-width="1px">0.55</text><text x="0" y="145.63636363636365" dx="0em" dy="0.3em" style="text-anchor: end; visibility: hidden; font-family: &quot;Helvetica Neue&quot;, sans-serif; font-size: 12px; font-weight: 200;" fill="rgb(50, 49, 63)" stroke="none" stroke-width="1px">0.6</text><text x="0" y="129.45454545454544" dx="0em" dy="0.3em" style="text-anchor: end; visibility: inherit; font-family: &quot;Helvetica Neue&quot;, sans-serif; font-size: 12px; font-weight: 200;" fill="rgb(50, 49, 63)" stroke="none" stroke-width="1px">0.65</text><text x="0" y="113.2727272727273" dx="0em" dy="0.3em" style="text-anchor: end; visibility: hidden; font-family: &quot;Helvetica Neue&quot;, sans-serif; font-size: 12px; font-weight: 200;" fill="rgb(50, 49, 63)" stroke="none" stroke-width="1px">0.7</text><text x="0" y="97.0909090909091" dx="0em" dy="0.3em" style="text-anchor: end; visibility: inherit; font-family: &quot;Helvetica Neue&quot;, sans-serif; font-size: 12px; font-weight: 200;" fill="rgb(50, 49, 63)" stroke="none" stroke-width="1px">0.75</text><text x="0" y="80.90909090909089" dx="0em" dy="0.3em" style="text-anchor: end; visibility: hidden; font-family: &quot;Helvetica Neue&quot;, sans-serif; font-size: 12px; font-weight: 200;" fill="rgb(50, 49, 63)" stroke="none" stroke-width="1px">0.8</text><text x="0" y="64.72727272727275" dx="0em" dy="0.3em" style="text-anchor: end; visibility: inherit; font-family: &quot;Helvetica Neue&quot;, sans-serif; font-size: 12px; font-weight: 200;" fill="rgb(50, 49, 63)" stroke="none" stroke-width="1px">0.85</text><text x="0" y="48.54545454545453" dx="0em" dy="0.3em" style="text-anchor: end; visibility: hidden; font-family: &quot;Helvetica Neue&quot;, sans-serif; font-size: 12px; font-weight: 200;" fill="rgb(50, 49, 63)" stroke="none" stroke-width="1px">0.9</text><text x="0" y="32.3636363636364" dx="0em" dy="0.3em" style="text-anchor: end; visibility: inherit; font-family: &quot;Helvetica Neue&quot;, sans-serif; font-size: 12px; font-weight: 200;" fill="rgb(50, 49, 63)" stroke="none" stroke-width="1px">0.95</text><text x="0" y="16.181818181818187" dx="0em" dy="0.3em" style="text-anchor: end; visibility: hidden; font-family: &quot;Helvetica Neue&quot;, sans-serif; font-size: 12px; font-weight: 200;" fill="rgb(50, 49, 63)" stroke="none" stroke-width="1px">1</text><text x="0" y="0" dx="0em" dy="0.3em" style="text-anchor: end; visibility: hidden; font-family: &quot;Helvetica Neue&quot;, sans-serif; font-size: 12px; font-weight: 200;" fill="rgb(50, 49, 63)" stroke="none" stroke-width="1px">1.05</text></g><line x1="50" y1="0" x2="50" y2="178" fill="rgb(0, 0, 0)" stroke="rgb(204, 204, 204)" stroke-width="1px"></line></g></g><g transform="translate(50, 0)" clip-path="url(#clip_0)"><clipPath id="clip_0"><rect width="280" height="178"></rect></clipPath><g><g><g><line x1="0" y1="0" x2="0" y2="178" fill="rgb(0, 0, 0)" stroke="rgb(60, 60, 60)" stroke-width="1px" opacity="0.25"></line><line x1="23.333333333333332" y1="0" x2="23.333333333333332" y2="178" fill="rgb(0, 0, 0)" stroke="rgb(60, 60, 60)" stroke-width="1px" opacity="0.25"></line><line x1="46.666666666666664" y1="0" x2="46.666666666666664" y2="178" fill="rgb(0, 0, 0)" stroke="rgb(60, 60, 60)" stroke-width="1px" opacity="0.25"></line><line x1="70" y1="0" x2="70" y2="178" fill="rgb(0, 0, 0)" stroke="rgb(60, 60, 60)" stroke-width="1px" opacity="0.25"></line><line x1="93.33333333333333" y1="0" x2="93.33333333333333" y2="178" fill="rgb(0, 0, 0)" stroke="rgb(60, 60, 60)" stroke-width="1px" opacity="0.25"></line><line x1="116.66666666666667" y1="0" x2="116.66666666666667" y2="178" fill="rgb(0, 0, 0)" stroke="rgb(60, 60, 60)" stroke-width="1px" opacity="0.25"></line><line x1="140" y1="0" x2="140" y2="178" fill="rgb(0, 0, 0)" stroke="rgb(60, 60, 60)" stroke-width="1px" opacity="0.25"></line><line x1="163.33333333333334" y1="0" x2="163.33333333333334" y2="178" fill="rgb(0, 0, 0)" stroke="rgb(60, 60, 60)" stroke-width="1px" opacity="0.25"></line><line x1="186.66666666666666" y1="0" x2="186.66666666666666" y2="178" fill="rgb(0, 0, 0)" stroke="rgb(60, 60, 60)" stroke-width="1px" opacity="0.25"></line><line x1="210" y1="0" x2="210" y2="178" fill="rgb(0, 0, 0)" stroke="rgb(60, 60, 60)" stroke-width="1px" opacity="0.25"></line><line x1="233.33333333333334" y1="0" x2="233.33333333333334" y2="178" fill="rgb(0, 0, 0)" stroke="rgb(60, 60, 60)" stroke-width="1px" opacity="0.25"></line><line x1="256.66666666666663" y1="0" x2="256.66666666666663" y2="178" fill="rgb(0, 0, 0)" stroke="rgb(60, 60, 60)" stroke-width="1px" opacity="0.25"></line><line x1="280" y1="0" x2="280" y2="178" fill="rgb(0, 0, 0)" stroke="rgb(60, 60, 60)" stroke-width="1px" opacity="0.25"></line></g><g><line x1="0" y1="178" x2="280" y2="178" fill="rgb(0, 0, 0)" stroke="rgb(60, 60, 60)" stroke-width="1px" opacity="0.25"></line><line x1="0" y1="161.8181818181818" x2="280" y2="161.8181818181818" fill="rgb(0, 0, 0)" stroke="rgb(60, 60, 60)" stroke-width="1px" opacity="0.25"></line><line x1="0" y1="145.63636363636365" x2="280" y2="145.63636363636365" fill="rgb(0, 0, 0)" stroke="rgb(60, 60, 60)" stroke-width="1px" opacity="0.25"></line><line x1="0" y1="129.45454545454544" x2="280" y2="129.45454545454544" fill="rgb(0, 0, 0)" stroke="rgb(60, 60, 60)" stroke-width="1px" opacity="0.25"></line><line x1="0" y1="113.2727272727273" x2="280" y2="113.2727272727273" fill="rgb(0, 0, 0)" stroke="rgb(60, 60, 60)" stroke-width="1px" opacity="0.25"></line><line x1="0" y1="97.0909090909091" x2="280" y2="97.0909090909091" fill="rgb(0, 0, 0)" stroke="rgb(60, 60, 60)" stroke-width="1px" opacity="0.25"></line><line x1="0" y1="80.90909090909089" x2="280" y2="80.90909090909089" fill="rgb(0, 0, 0)" stroke="rgb(60, 60, 60)" stroke-width="1px" opacity="0.25"></line><line x1="0" y1="64.72727272727275" x2="280" y2="64.72727272727275" fill="rgb(0, 0, 0)" stroke="rgb(60, 60, 60)" stroke-width="1px" opacity="0.25"></line><line x1="0" y1="48.54545454545453" x2="280" y2="48.54545454545453" fill="rgb(0, 0, 0)" stroke="rgb(60, 60, 60)" stroke-width="1px" opacity="0.25"></line><line x1="0" y1="32.3636363636364" x2="280" y2="32.3636363636364" fill="rgb(0, 0, 0)" stroke="rgb(60, 60, 60)" stroke-width="1px" opacity="0.25"></line><line x1="0" y1="16.181818181818187" x2="280" y2="16.181818181818187" fill="rgb(0, 0, 0)" stroke="rgb(60, 60, 60)" stroke-width="1px" opacity="0.25"></line><line x1="0" y1="0" x2="280" y2="0" fill="rgb(0, 0, 0)" stroke="rgb(60, 60, 60)" stroke-width="1px" opacity="0.25"></line></g></g></g><g><g><line x1="0" y1="339.8181818181818" x2="280" y2="339.8181818181818" fill="rgb(0, 0, 0)" stroke="rgb(153, 153, 153)" stroke-width="1.5px"></line></g></g><g><g><line x1="23.333333333333332" y1="0" x2="23.333333333333332" y2="178" fill="rgb(0, 0, 0)" stroke="rgb(153, 153, 153)" stroke-width="1.5px"></line></g></g><g><g><g><g><g><path stroke="rgb(187, 187, 187)" stroke-width="2px" d="M23.333333333333332,103.63091451471503L25.666666666666664,90.06221387102889L28,104.02489578967537L30.333333333333336,89.95884571208822L32.666666666666664,86.64118930052842L35,82.984372061431L37.333333333333336,79.09004163961855L39.666666666666664,75.88569201368959L42,74.92459706418022L44.33333333333333,69.66535132406678L46.666666666666664,67.53519010680007L49,69.44602556941612L51.33333333333333,65.57977910949548L53.66666666666667,61.344225678944596L56,59.82270646204984L58.333333333333336,61.39649878719989L60.66666666666667,61.8188372429364L63,61.66219917482215L65.33333333333333,60.583188485438L67.66666666666667,61.17028266055452L70,60.41598558688959L72.33333333333334,59.66428239677788L74.66666666666667,58.07331668892543L77,57.49941858075188L79.33333333333333,57.98159722373859L81.66666666666667,58.98367281252652L84,57.087390297905245L86.33333333333334,56.60293143663068L88.66666666666666,53.21700084528629L91,51.661368817822265L93.33333333333333,51.389812643325584L95.66666666666667,50.939807803229925L98,49.25712900130344L100.33333333333333,62.35987537854625L102.66666666666666,56.534812240245586L105,56.537860544076196L107.33333333333334,55.13833286072219L109.66666666666667,54.68405866344206L112,55.38113956606868L114.33333333333333,54.555530630115896L116.66666666666667,55.721232882307206L119,51.26451771253616L121.33333333333334,49.1797835398844L123.66666666666666,47.5965424573308L126,47.30772958222525L128.33333333333331,46.706790961677484L130.66666666666666,47.17205823746275L133,50.96642151928049L135.33333333333334,56.0006086571792L137.66666666666666,54.66240935731351L140,53.966175908191516L142.33333333333331,51.4288916023779L144.66666666666669,49.5628066848019L147,48.2563552642585L149.33333333333334,57.389965141595866L151.66666666666666,54.68990324688333L154,49.77908278903277L156.33333333333334,50.493673463330495L158.66666666666666,47.29658028755861L161,63.23666932842103L163.33333333333334,57.92366279010707L165.66666666666666,51.09946246969511L168,50.61819796371738L170.33333333333331,51.15826156074529L172.66666666666669,55.55994422964211L175,61.2539882110442L177.33333333333331,59.06691495213845L179.66666666666669,55.31756630493226L182,52.413651713640434L184.33333333333334,50.87899455439526L186.66666666666666,51.040969969606664L189,48.89992509079809L191.33333333333334,47.421630928304836L193.66666666666666,46.07726650319643L196,45.93775153752958L198.33333333333334,46.83155694432597L200.66666666666666,44.587326889633545L203,45.56711096584084L205.33333333333331,46.03933490023246L207.66666666666669,43.25133419881129L210,43.610972160500836L212.33333333333331,53.50559844135496L214.66666666666669,58.84888595362493L217,55.741869867649456L219.33333333333334,48.89498797989674L221.66666666666666,50.922109234121194L224,51.908777791535684L226.33333333333334,51.40430226634365L228.66666666666666,50.10800280276044L231,52.80138687198706L233.33333333333334,50.140326768023755L235.66666666666666,46.23487745589452L238,44.63483278291403L240.33333333333331,43.35451540198898L242.66666666666669,41.43317366533475L245,41.493626800576266L247.33333333333331,40.27011828945177L249.66666666666669,47.213280737957206L252,50.29147278145909L254.33333333333334,50.25334552180789" style="fill: none;" fill="none"></path></g><g><path stroke="rgb(0, 153, 136)" stroke-width="2px" d="M23.333333333333332,153.96111275933006L25.666666666666664,112.51723370518717L28,102.40436076076206L30.333333333333336,90.36727352742548L32.666666666666664,82.02631375279664L35,77.32866831731515L37.333333333333336,77.44810588986188L39.666666666666664,76.19122559068936L42,73.82203279208888L44.33333333333333,74.3801855397454L46.666666666666664,70.56326653847043L49,66.46609492234944L51.33333333333333,63.77364003145408L53.66666666666667,62.164755144901406L56,60.633961255866055L58.333333333333336,60.274640410145935L60.66666666666667,58.401048016337256L63,60.10729458433073L65.33333333333333,58.05128868663637L67.66666666666667,57.01200201916046L70,55.73109835463022L72.33333333333334,54.509645077591L74.66666666666667,53.95671908385134L77,53.40069048257055L79.33333333333333,52.73748977112227L81.66666666666667,54.32234072262946L84,51.840311795560524L86.33333333333334,51.551796530598125L88.66666666666666,50.143804501943336L91,49.15858705287715L93.33333333333333,49.91079634863729L95.66666666666667,48.486811420586406L98,48.122967051396586L100.33333333333333,49.68444891386537L102.66666666666666,50.97605961331182L105,50.3101164527844L107.33333333333334,49.472986743264045L109.66666666666667,48.17810394014924L112,48.80692507005014L114.33333333333333,49.37532263758811L116.66666666666667,48.43274851473669L119,47.98394718226177L121.33333333333334,45.809331381289496L123.66666666666666,43.99420439395925L126,43.49111927241324L128.33333333333331,43.52745980047982L130.66666666666666,43.40986513900077L133,43.86251433487652L135.33333333333334,42.917751233228046L137.66666666666666,43.590012782770884L140,43.028045512349536L142.33333333333331,42.9574237174717L144.66666666666669,42.878208222804545L147,42.583167662389684L149.33333333333334,43.69658990678241L151.66666666666666,48.67177049351699L154,46.695213067912334L156.33333333333334,45.389710931174136L158.66666666666666,44.468541477106925L161,44.55925668515337L163.33333333333334,45.31748391372565L165.66666666666666,45.05477606900746L168,44.680122428844726L170.33333333333331,43.533986910659024L172.66666666666669,44.71175994369901L175,51.165289859444925L177.33333333333331,53.585246073995506L179.66666666666669,53.55436523720053L182,49.746834782719105L184.33333333333334,46.630528386092664L186.66666666666666,45.80527511849897L189,45.78055357874558L191.33333333333334,43.90606452352645L193.66666666666666,44.27786233490346L196,44.47515909414511L198.33333333333334,45.15969230073827L200.66666666666666,43.93894146536309L203,42.299072073038616L205.33333333333331,41.37937708760629L207.66666666666669,42.418074938338066L210,44.61061456593444L212.33333333333331,42.929321764273084L214.66666666666669,43.07110573927051L217,44.14185146246575L219.33333333333334,41.092991353716144L221.66666666666666,40.27481514317651L224,40.079139633573504L226.33333333333334,41.114357543238384L228.66666666666666,40.46355337597274L231,39.425424293626634L233.33333333333334,41.337161933576624L235.66666666666666,40.9535676147874L238,40.57351367406824L240.33333333333331,38.82770336309878L242.66666666666669,38.47317178131837L245,39.444181518741345L247.33333333333331,39.2793858691862L249.66666666666669,38.54501934424562L252,37.77035564417346L254.33333333333334,39.14522892450165" style="fill: none;" fill="none"></path></g></g></g></g><g opacity="0.2"><g><g><g><path stroke="rgb(187, 187, 187)" stroke-width="2px" d="M23.333333333333332,103.63091451471503L25.666666666666664,81.58177596872504L28,118.20574461330068L30.333333333333336,72.23891934481536L32.666666666666664,81.9554856040261L35,77.4709121097218L37.333333333333336,72.98635790564798L39.666666666666664,70.74406151338059L42,73.36006754094905L44.33333333333333,61.02749525416982L46.666666666666664,64.01721091703935L49,72.61264827034692L51.33333333333333,59.15892778743398L53.66666666666667,54.30064465782861L56,57.29036032069814L58.333333333333336,64.01721091703935L60.66666666666667,62.52235308560459L63,61.40122417970139L65.33333333333333,58.78521815213291L67.66666666666667,62.14864345030351L70,59.15892778743398L72.33333333333334,58.41150851683183L74.66666666666667,55.4217928539623L77,56.54294105009599L79.33333333333333,58.78521815213291L81.66666666666667,60.65378561886875L84,53.92693502252753L86.33333333333334,55.79550248926337L88.66666666666666,47.573794061487376L91,49.068651892922134L93.33333333333333,50.93721935965799L95.66666666666667,50.18980008905585L98,46.452665155584185L100.33333333333333,84.1977819962935L102.66666666666666,46.82637479088524L105,56.54294105009599L107.33333333333334,52.80578682639383L109.66666666666667,53.92693502252753L112,56.54294105009599L114.33333333333333,53.17951575192539L116.66666666666667,57.66406995599921L119,43.8366591280157L121.33333333333334,45.70522659475154L123.66666666666666,44.9578073241494L126,46.82637479088524L128.33333333333331,45.70522659475154L130.66666666666666,47.94750369678846L133,57.29036032069814L135.33333333333334,64.39092055234043L137.66666666666666,52.43207719109277L140,52.80578682639383L142.33333333333331,47.200084426186294L144.66666666666669,46.452665155584185L147,46.07893623005262L149.33333333333334,72.61264827034692L151.66666666666666,50.18980008905585L154,41.594382025978774L156.33333333333334,51.68465792049062L158.66666666666666,41.96809166127986L161,89.80348439650102L163.33333333333334,49.068651892922134L165.66666666666666,39.72579526901248L168,49.81609045375478L170.33333333333331,52.05836755579169L172.66666666666669,62.89608201113616L175,70.74406151338059L177.33333333333331,55.4217928539623L179.66666666666669,49.068651892922134L182,47.573794061487376L184.33333333333334,48.321232622320025L186.66666666666666,51.310928994959056L189,45.331516959450454L191.33333333333334,44.9578073241494L193.66666666666666,43.8366591280157L196,45.70522659475154L198.33333333333334,48.321232622320025L200.66666666666666,40.846943465146154L203,47.200084426186294L205.33333333333331,46.82637479088524L207.66666666666669,38.60466636310926L210,44.21036876331678L212.33333333333331,69.99664224277844L214.66666666666669,67.75436514074153L217,50.56350972435693L219.33333333333334,37.48351816697556L221.66666666666666,54.30064465782861L224,53.55322538722646L226.33333333333334,50.56350972435693L228.66666666666666,47.94750369678846L231,57.29036032069814L233.33333333333334,45.70522659475154L235.66666666666666,39.72579526901248L238,41.96809166127986L240.33333333333331,41.22065310044724L242.66666666666669,38.230937437577694L245,41.594382025978774L247.33333333333331,38.230937437577694L249.66666666666669,58.78521815213291L252,55.4217928539623L254.33333333333334,50.18980008905585" style="fill: none;" fill="none"></path></g><g><path stroke="rgb(0, 153, 136)" stroke-width="2px" d="M23.333333333333332,153.96111275933006L25.666666666666664,86.61480929634787L28,92.13347417658026L30.333333333333336,75.20336480574174L32.666666666666664,70.24592989141291L35,70.24592989141291L37.333333333333336,77.63530345396562L39.666666666666664,74.17446249181575L42,69.96531490846115L44.33333333333333,75.29690313339233L46.666666666666664,64.25959266315807L49,59.676291769201114L51.33333333333333,59.302157748829245L53.66666666666667,59.489234404130414L56,58.08617877960205L58.333333333333336,59.676291769201114L60.66666666666667,55.28008682077582L63,62.9500753662803L65.33333333333333,54.62533781745218L67.66666666666667,55.28008682077582L70,53.596435503526166L72.33333333333334,52.47399486194958L74.66666666666667,53.03520553762263L77,52.47399486194958L79.33333333333333,51.63216920332475L81.66666666666667,56.96373813802546L84,47.70361731269142L86.33333333333334,51.070939237421214L88.66666666666666,47.79715564034203L91,47.51655994762075L93.33333333333333,51.164477565071806L95.66666666666667,46.11350432309237L98,47.51655994762075L100.33333333333333,52.28691820664841L102.66666666666666,53.12874386527322L105,49.200211264870376L107.33333333333334,48.07777062329379L109.66666666666667,46.019965995441794L112,49.85496026819405L114.33333333333333,50.32265190644699L116.66666666666667,46.86179165406662L119,47.23594496466896L121.33333333333334,42.18497172268954L123.66666666666666,40.96899275346237L126,42.652644070712L128.33333333333331,43.58802734721792L130.66666666666666,43.21387403661555L133,44.61692966114393L135.33333333333334,41.34314606406471L137.66666666666666,44.71044869856402L140,42.09143339503896L142.33333333333331,42.83972072601321L144.66666666666669,42.746182398362606L147,42.09143339503896L149.33333333333334,45.55229364741933L151.66666666666666,56.96373813802546L154,43.400950691916734L156.33333333333334,43.21387403661555L158.66666666666666,42.93325905366379L161,44.71044869856402L163.33333333333334,46.581195961345344L165.66666666666666,44.61692966114393L168,44.05569969524038L170.33333333333331,41.6237610470165L172.66666666666669,46.67471499876544L175,61.92117305235429L177.33333333333331,57.61850643157959L179.66666666666669,53.50289717587559L182,43.400950691916734L184.33333333333334,41.43668439171532L186.66666666666666,44.429853005842745L189,45.739351012490005L191.33333333333334,40.78191609816119L193.66666666666666,44.897525353865205L196,44.80398702621463L198.33333333333334,46.30058097839358L200.66666666666666,41.90435673973778L203,39.56595641916451L205.33333333333331,39.84655211188576L207.66666666666669,44.149238022890955L210,48.264847278595L212.33333333333331,40.127167094837546L214.66666666666669,43.30741236426613L217,45.926427667791216L219.33333333333334,36.01155783913353L221.66666666666666,38.91118812561038L224,39.75301378423518L226.33333333333334,42.83972072601321L228.66666666666666,39.378879763863296L231,37.695209156383186L233.33333333333334,44.52339133349332L235.66666666666666,40.31424375013873L238,39.94009043953636L240.33333333333331,35.918019511482925L242.66666666666669,37.88228581168434L245,41.06253108111295L247.33333333333331,39.00472645326096L249.66666666666669,37.3210751360113L252,36.4792494773865L254.33333333333334,41.43668439171532" style="fill: none;" fill="none"></path></g></g></g></g></g></g><g transform="translate(50, 178)" clip-path="url(#clip_1)"><clipPath id="clip_1"><rect width="280" height="22"></rect></clipPath><g><g><line x1="0" y1="0" x2="0" y2="5" style="visibility: inherit;" fill="rgb(0, 0, 0)" stroke="rgb(204, 204, 204)" stroke-width="1px"></line><line x1="23.333333333333332" y1="0" x2="23.333333333333332" y2="5" style="visibility: inherit;" fill="rgb(0, 0, 0)" stroke="rgb(204, 204, 204)" stroke-width="1px"></line><line x1="46.666666666666664" y1="0" x2="46.666666666666664" y2="5" style="visibility: inherit;" fill="rgb(0, 0, 0)" stroke="rgb(204, 204, 204)" stroke-width="1px"></line><line x1="70" y1="0" x2="70" y2="5" style="visibility: inherit;" fill="rgb(0, 0, 0)" stroke="rgb(204, 204, 204)" stroke-width="1px"></line><line x1="93.33333333333333" y1="0" x2="93.33333333333333" y2="5" style="visibility: inherit;" fill="rgb(0, 0, 0)" stroke="rgb(204, 204, 204)" stroke-width="1px"></line><line x1="116.66666666666667" y1="0" x2="116.66666666666667" y2="5" style="visibility: inherit;" fill="rgb(0, 0, 0)" stroke="rgb(204, 204, 204)" stroke-width="1px"></line><line x1="140" y1="0" x2="140" y2="5" style="visibility: inherit;" fill="rgb(0, 0, 0)" stroke="rgb(204, 204, 204)" stroke-width="1px"></line><line x1="163.33333333333334" y1="0" x2="163.33333333333334" y2="5" style="visibility: inherit;" fill="rgb(0, 0, 0)" stroke="rgb(204, 204, 204)" stroke-width="1px"></line><line x1="186.66666666666666" y1="0" x2="186.66666666666666" y2="5" style="visibility: inherit;" fill="rgb(0, 0, 0)" stroke="rgb(204, 204, 204)" stroke-width="1px"></line><line x1="210" y1="0" x2="210" y2="5" style="visibility: inherit;" fill="rgb(0, 0, 0)" stroke="rgb(204, 204, 204)" stroke-width="1px"></line><line x1="233.33333333333334" y1="0" x2="233.33333333333334" y2="5" style="visibility: inherit;" fill="rgb(0, 0, 0)" stroke="rgb(204, 204, 204)" stroke-width="1px"></line><line x1="256.66666666666663" y1="0" x2="256.66666666666663" y2="5" style="visibility: inherit;" fill="rgb(0, 0, 0)" stroke="rgb(204, 204, 204)" stroke-width="1px"></line><line x1="280" y1="0" x2="280" y2="5" style="visibility: inherit;" fill="rgb(0, 0, 0)" stroke="rgb(204, 204, 204)" stroke-width="1px"></line></g><g transform="translate(0, 8)"><text x="0" y="0" dx="0em" dy="0.95em" style="text-anchor: middle; visibility: hidden; font-family: &quot;Helvetica Neue&quot;, sans-serif; font-size: 12px; font-weight: 200;" fill="rgb(50, 49, 63)" stroke="none" stroke-width="1px">-10</text><text x="23.333333333333332" y="0" dx="0em" dy="0.95em" style="text-anchor: middle; visibility: inherit; font-family: &quot;Helvetica Neue&quot;, sans-serif; font-size: 12px; font-weight: 200;" fill="rgb(50, 49, 63)" stroke="none" stroke-width="1px">0</text><text x="46.666666666666664" y="0" dx="0em" dy="0.95em" style="text-anchor: middle; visibility: inherit; font-family: &quot;Helvetica Neue&quot;, sans-serif; font-size: 12px; font-weight: 200;" fill="rgb(50, 49, 63)" stroke="none" stroke-width="1px">10</text><text x="70" y="0" dx="0em" dy="0.95em" style="text-anchor: middle; visibility: inherit; font-family: &quot;Helvetica Neue&quot;, sans-serif; font-size: 12px; font-weight: 200;" fill="rgb(50, 49, 63)" stroke="none" stroke-width="1px">20</text><text x="93.33333333333333" y="0" dx="0em" dy="0.95em" style="text-anchor: middle; visibility: inherit; font-family: &quot;Helvetica Neue&quot;, sans-serif; font-size: 12px; font-weight: 200;" fill="rgb(50, 49, 63)" stroke="none" stroke-width="1px">30</text><text x="116.66666666666667" y="0" dx="0em" dy="0.95em" style="text-anchor: middle; visibility: inherit; font-family: &quot;Helvetica Neue&quot;, sans-serif; font-size: 12px; font-weight: 200;" fill="rgb(50, 49, 63)" stroke="none" stroke-width="1px">40</text><text x="140" y="0" dx="0em" dy="0.95em" style="text-anchor: middle; visibility: inherit; font-family: &quot;Helvetica Neue&quot;, sans-serif; font-size: 12px; font-weight: 200;" fill="rgb(50, 49, 63)" stroke="none" stroke-width="1px">50</text><text x="163.33333333333334" y="0" dx="0em" dy="0.95em" style="text-anchor: middle; visibility: inherit; font-family: &quot;Helvetica Neue&quot;, sans-serif; font-size: 12px; font-weight: 200;" fill="rgb(50, 49, 63)" stroke="none" stroke-width="1px">60</text><text x="186.66666666666666" y="0" dx="0em" dy="0.95em" style="text-anchor: middle; visibility: inherit; font-family: &quot;Helvetica Neue&quot;, sans-serif; font-size: 12px; font-weight: 200;" fill="rgb(50, 49, 63)" stroke="none" stroke-width="1px">70</text><text x="210" y="0" dx="0em" dy="0.95em" style="text-anchor: middle; visibility: inherit; font-family: &quot;Helvetica Neue&quot;, sans-serif; font-size: 12px; font-weight: 200;" fill="rgb(50, 49, 63)" stroke="none" stroke-width="1px">80</text><text x="233.33333333333334" y="0" dx="0em" dy="0.95em" style="text-anchor: middle; visibility: inherit; font-family: &quot;Helvetica Neue&quot;, sans-serif; font-size: 12px; font-weight: 200;" fill="rgb(50, 49, 63)" stroke="none" stroke-width="1px">90</text><text x="256.66666666666663" y="0" dx="0em" dy="0.95em" style="text-anchor: middle; visibility: inherit; font-family: &quot;Helvetica Neue&quot;, sans-serif; font-size: 12px; font-weight: 200;" fill="rgb(50, 49, 63)" stroke="none" stroke-width="1px">100</text><text x="280" y="0" dx="0em" dy="0.95em" style="text-anchor: middle; visibility: hidden; font-family: &quot;Helvetica Neue&quot;, sans-serif; font-size: 12px; font-weight: 200;" fill="rgb(50, 49, 63)" stroke="none" stroke-width="1px">110</text></g><line x1="0" y1="0" x2="280" y2="0" fill="rgb(0, 0, 0)" stroke="rgb(204, 204, 204)" stroke-width="1px"></line></g></g></g></g></svg>