<svg viewBox="0 0 330 200" xmlns="http://www.w3.org/2000/svg"><g><g><g><g><g><line x1="50" y1="178" x2="45" y2="178" style="visibility: inherit;" fill="rgb(0, 0, 0)" stroke="rgb(204, 204, 204)" stroke-width="1px"></line><line x1="50" y1="155.75" x2="45" y2="155.75" style="visibility: inherit;" fill="rgb(0, 0, 0)" stroke="rgb(204, 204, 204)" stroke-width="1px"></line><line x1="50" y1="133.5" x2="45" y2="133.5" style="visibility: inherit;" fill="rgb(0, 0, 0)" stroke="rgb(204, 204, 204)" stroke-width="1px"></line><line x1="50" y1="111.24999999999999" x2="45" y2="111.24999999999999" style="visibility: inherit;" fill="rgb(0, 0, 0)" stroke="rgb(204, 204, 204)" stroke-width="1px"></line><line x1="50" y1="88.99999999999999" x2="45" y2="88.99999999999999" style="visibility: inherit;" fill="rgb(0, 0, 0)" stroke="rgb(204, 204, 204)" stroke-width="1px"></line><line x1="50" y1="66.75" x2="45" y2="66.75" style="visibility: inherit;" fill="rgb(0, 0, 0)" stroke="rgb(204, 204, 204)" stroke-width="1px"></line><line x1="50" y1="44.5" x2="45" y2="44.5" style="visibility: inherit;" fill="rgb(0, 0, 0)" stroke="rgb(204, 204, 204)" stroke-width="1px"></line><line x1="50" y1="22.25" x2="45" y2="22.25" style="visibility: inherit;" fill="rgb(0, 0, 0)" stroke="rgb(204, 204, 204)" stroke-width="1px"></line><line x1="50" y1="0" x2="45" y2="0" style="visibility: inherit;" fill="rgb(0, 0, 0)" stroke="rgb(204, 204, 204)" stroke-width="1px"></line></g><g transform="translate(40, 0)"><text x="0" y="178" dx="0em" dy="0.3em" style="text-anchor: end; visibility: hidden; font-family: &quot;Helvetica Neue&quot;, sans-serif; font-size: 12px; font-weight: 200;" fill="rgb(50, 49, 63)" stroke="none" stroke-width="1px">-0.2</text><text x="0" y="155.75" dx="0em" dy="0.3em" style="text-anchor: end; visibility: inherit; font-family: &quot;Helvetica Neue&quot;, sans-serif; font-size: 12px; font-weight: 200;" fill="rgb(50, 49, 63)" stroke="none" stroke-width="1px">0</text><text x="0" y="133.5" dx="0em" dy="0.3em" style="text-anchor: end; visibility: hidden; font-family: &quot;Helvetica Neue&quot;, sans-serif; font-size: 12px; font-weight: 200;" fill="rgb(50, 49, 63)" stroke="none" stroke-width="1px">0.2</text><text x="0" y="111.24999999999999" dx="0em" dy="0.3em" style="text-anchor: end; visibility: inherit; font-family: &quot;Helvetica Neue&quot;, sans-serif; font-size: 12px; font-weight: 200;" fill="rgb(50, 49, 63)" stroke="none" stroke-width="1px">0.4</text><text x="0" y="88.99999999999999" dx="0em" dy="0.3em" style="text-anchor: end; visibility: hidden; font-family: &quot;Helvetica Neue&quot;, sans-serif; font-size: 12px; font-weight: 200;" fill="rgb(50, 49, 63)" stroke="none" stroke-width="1px">0.6</text><text x="0" y="66.75" dx="0em" dy="0.3em" style="text-anchor: end; visibility: inherit; font-family: &quot;Helvetica Neue&quot;, sans-serif; font-size: 12px; font-weight: 200;" fill="rgb(50, 49, 63)" stroke="none" stroke-width="1px">0.8</text><text x="0" y="44.5" dx="0em" dy="0.3em" style="text-anchor: end; visibility: hidden; font-family: &quot;Helvetica Neue&quot;, sans-serif; font-size: 12px; font-weight: 200;" fill="rgb(50, 49, 63)" stroke="none" stroke-width="1px">1</text><text x="0" y="22.25" dx="0em" dy="0.3em" style="text-anchor: end; visibility: inherit; font-family: &quot;Helvetica Neue&quot;, sans-serif; font-size: 12px; font-weight: 200;" fill="rgb(50, 49, 63)" stroke="none" stroke-width="1px">1.2</text><text x="0" y="0" dx="0em" dy="0.3em" style="text-anchor: end; visibility: hidden; font-family: &quot;Helvetica Neue&quot;, sans-serif; font-size: 12px; font-weight: 200;" fill="rgb(50, 49, 63)" stroke="none" stroke-width="1px">1.4</text></g><line x1="50" y1="0" x2="50" y2="178" fill="rgb(0, 0, 0)" stroke="rgb(204, 204, 204)" stroke-width="1px"></line></g></g><g transform="translate(50, 0)" clip-path="url(#clip_0)"><clipPath id="clip_0"><rect width="280" height="178"></rect></clipPath><g><g><g><line x1="0" y1="0" x2="0" y2="178" fill="rgb(0, 0, 0)" stroke="rgb(60, 60, 60)" stroke-width="1px" opacity="0.25"></line><line x1="23.333333333333332" y1="0" x2="23.333333333333332" y2="178" fill="rgb(0, 0, 0)" stroke="rgb(60, 60, 60)" stroke-width="1px" opacity="0.25"></line><line x1="46.666666666666664" y1="0" x2="46.666666666666664" y2="178" fill="rgb(0, 0, 0)" stroke="rgb(60, 60, 60)" stroke-width="1px" opacity="0.25"></line><line x1="70" y1="0" x2="70" y2="178" fill="rgb(0, 0, 0)" stroke="rgb(60, 60, 60)" stroke-width="1px" opacity="0.25"></line><line x1="93.33333333333333" y1="0" x2="93.33333333333333" y2="178" fill="rgb(0, 0, 0)" stroke="rgb(60, 60, 60)" stroke-width="1px" opacity="0.25"></line><line x1="116.66666666666667" y1="0" x2="116.66666666666667" y2="178" fill="rgb(0, 0, 0)" stroke="rgb(60, 60, 60)" stroke-width="1px" opacity="0.25"></line><line x1="140" y1="0" x2="140" y2="178" fill="rgb(0, 0, 0)" stroke="rgb(60, 60, 60)" stroke-width="1px" opacity="0.25"></line><line x1="163.33333333333334" y1="0" x2="163.33333333333334" y2="178" fill="rgb(0, 0, 0)" stroke="rgb(60, 60, 60)" stroke-width="1px" opacity="0.25"></line><line x1="186.66666666666666" y1="0" x2="186.66666666666666" y2="178" fill="rgb(0, 0, 0)" stroke="rgb(60, 60, 60)" stroke-width="1px" opacity="0.25"></line><line x1="210" y1="0" x2="210" y2="178" fill="rgb(0, 0, 0)" stroke="rgb(60, 60, 60)" stroke-width="1px" opacity="0.25"></line><line x1="233.33333333333334" y1="0" x2="233.33333333333334" y2="178" fill="rgb(0, 0, 0)" stroke="rgb(60, 60, 60)" stroke-width="1px" opacity="0.25"></line><line x1="256.66666666666663" y1="0" x2="256.66666666666663" y2="178" fill="rgb(0, 0, 0)" stroke="rgb(60, 60, 60)" stroke-width="1px" opacity="0.25"></line><line x1="280" y1="0" x2="280" y2="178" fill="rgb(0, 0, 0)" stroke="rgb(60, 60, 60)" stroke-width="1px" opacity="0.25"></line></g><g><line x1="0" y1="178" x2="280" y2="178" fill="rgb(0, 0, 0)" stroke="rgb(60, 60, 60)" stroke-width="1px" opacity="0.25"></line><line x1="0" y1="155.75" x2="280" y2="155.75" fill="rgb(0, 0, 0)" stroke="rgb(60, 60, 60)" stroke-width="1px" opacity="0.25"></line><line x1="0" y1="133.5" x2="280" y2="133.5" fill="rgb(0, 0, 0)" stroke="rgb(60, 60, 60)" stroke-width="1px" opacity="0.25"></line><line x1="0" y1="111.24999999999999" x2="280" y2="111.24999999999999" fill="rgb(0, 0, 0)" stroke="rgb(60, 60, 60)" stroke-width="1px" opacity="0.25"></line><line x1="0" y1="88.99999999999999" x2="280" y2="88.99999999999999" fill="rgb(0, 0, 0)" stroke="rgb(60, 60, 60)" stroke-width="1px" opacity="0.25"></line><line x1="0" y1="66.75" x2="280" y2="66.75" fill="rgb(0, 0, 0)" stroke="rgb(60, 60, 60)" stroke-width="1px" opacity="0.25"></line><line x1="0" y1="44.5" x2="280" y2="44.5" fill="rgb(0, 0, 0)" stroke="rgb(60, 60, 60)" stroke-width="1px" opacity="0.25"></line><line x1="0" y1="22.25" x2="280" y2="22.25" fill="rgb(0, 0, 0)" stroke="rgb(60, 60, 60)" stroke-width="1px" opacity="0.25"></line><line x1="0" y1="0" x2="280" y2="0" fill="rgb(0, 0, 0)" stroke="rgb(60, 60, 60)" stroke-width="1px" opacity="0.25"></line></g></g></g><g><g><line x1="0" y1="155.75" x2="280" y2="155.75" fill="rgb(0, 0, 0)" stroke="rgb(153, 153, 153)" stroke-width="1.5px"></line></g></g><g><g><line x1="23.333333333333332" y1="0" x2="23.333333333333332" y2="178" fill="rgb(0, 0, 0)" stroke="rgb(153, 153, 153)" stroke-width="1.5px"></line></g></g><g><g><g><g><g><path stroke="rgb(187, 187, 187)" stroke-width="2px" d="M23.333333333333332,65.33273157477379L25.666666666666664,80.08720083190846L28,80.4853433673234L30.333333333333336,90.3882523385378L32.666666666666664,93.64916853655411L35,92.07674213560894L37.333333333333336,94.95975819006057L39.666666666666664,98.41036505353016L42,98.2593702240535L44.33333333333333,102.32308940171347L46.666666666666664,105.64535320665514L49,102.81250788501598L51.33333333333333,105.31289207283157L53.66666666666667,108.66145515949982L56,110.82357058144277L58.333333333333336,110.95801778884513L60.66666666666667,111.11345928842202L63,111.83929683539395L65.33333333333333,112.43755790668772L67.66666666666667,113.12271264147505L70,111.16484504583673L72.33333333333334,112.57108871312752L74.66666666666667,114.14118244014L77,115.81363336712312L79.33333333333333,116.16638000652335L81.66666666666667,116.07174992499266L84,116.66729616753817L86.33333333333334,117.59358121181182L88.66666666666666,119.53915376752423L91,121.04738669464325L93.33333333333333,121.22920287051791L95.66666666666667,122.41389249868885L98,123.17444015484571L100.33333333333333,114.81531504908119L102.66666666666666,118.569607454985L105,118.27298959811974L107.33333333333334,120.17595229055874L109.66666666666667,121.90362480829458L112,118.11791194804741L114.33333333333333,119.48876710322344L116.66666666666667,117.79942763114525L119,121.46639206473468L121.33333333333334,123.50611658123151L123.66666666666666,124.57717615867108L126,123.6720746063896L128.33333333333331,125.13810686974088L130.66666666666666,125.63669384878642L133,123.67757000657107L135.33333333333334,119.13665893183008L137.66666666666666,120.82263092959145L140,122.4898041736624L142.33333333333331,124.48696468940149L144.66666666666669,125.70230804305365L147,126.90494384149666L149.33333333333334,118.22845476196248L151.66666666666666,118.55904370873071L154,120.98854728527246L156.33333333333334,120.14745866064715L158.66666666666666,122.0350501919461L161,106.75161863084467L163.33333333333334,112.39598258191195L165.66666666666666,119.1304666342778L168,119.71588506751036L170.33333333333331,122.68458324889849L172.66666666666669,113.98379241998266L175,101.16059527282417L177.33333333333331,106.42179372834984L179.66666666666669,112.93668680127608L182,116.91632674036022L184.33333333333334,118.8383232746124L186.66666666666666,119.46897999312728L189,122.42362342195119L191.33333333333334,125.01730249413231L193.66666666666666,125.36504936894016L196,126.75319290490347L198.33333333333334,126.16238953565184L200.66666666666666,127.39779229567463L203,126.76297745081294L205.33333333333331,127.59112465690515L207.66666666666669,128.3385112300263L210,127.46657876203125L212.33333333333331,121.78460504847061L214.66666666666669,120.20787731084532L217,122.46703739727106L219.33333333333334,125.83888197295718L221.66666666666666,123.73254515729133L224,121.86898100780809L226.33333333333334,124.81762830001838L228.66666666666666,125.9625311073706L231,123.46925436035082L233.33333333333334,124.12066894909543L235.66666666666666,126.93236431939405L238,128.13454468370105L240.33333333333331,128.5692784346679L242.66666666666669,130.12168854568398L245,129.21756883489584L247.33333333333331,129.87420144864976L249.66666666666669,124.61537530111187L252,124.35013575657527L254.33333333333334,123.82590941311369" style="fill: none;" fill="none"></path></g><g><path stroke="rgb(0, 153, 136)" stroke-width="2px" d="M23.333333333333332,23.96218952536583L25.666666666666664,58.25749793190219L28,69.78380885489227L30.333333333333336,81.79560947188962L32.666666666666664,90.44875293719467L35,96.16495477891338L37.333333333333336,96.03012821998962L39.666666666666664,99.14879277636086L42,101.48719673679359L44.33333333333333,101.61062542985935L46.666666666666664,104.88793689197932L49,108.83305312913534L51.33333333333333,111.42806987887373L53.66666666666667,113.24087887699511L56,115.27560292315174L58.333333333333336,115.53231038831991L60.66666666666667,116.28778967477271L63,115.27197540740083L65.33333333333333,116.87129643881161L67.66666666666667,118.4395523362452L70,119.06344217283902L72.33333333333334,120.08758822148019L74.66666666666667,120.66565393305864L77,120.78016521647969L79.33333333333333,121.70001256606798L81.66666666666667,120.08927118661964L84,122.78546768071655L86.33333333333334,123.49928548723146L88.66666666666666,124.4070781067874L91,125.32177825919038L93.33333333333333,125.24164944597234L95.66666666666667,126.23301893367932L98,127.1462076179607L100.33333333333333,125.846450235031L102.66666666666666,123.39065490836933L105,124.54913793592326L107.33333333333334,125.48070788534783L109.66666666666667,126.44989249039784L112,126.61207875649798L114.33333333333333,125.17566389191711L116.66666666666667,125.6522072828486L119,126.5290502914799L121.33333333333334,128.57293197397783L123.66666666666666,130.37736657471595L126,131.3373707817683L128.33333333333331,131.25613839326152L130.66666666666666,131.7059562440112L133,131.8311532667972L135.33333333333334,132.02395180563173L137.66666666666666,131.36116887919852L140,131.69128459409387L142.33333333333331,131.78588568103115L144.66666666666669,131.93475077476455L147,132.43247391346912L149.33333333333334,131.78598025433845L151.66666666666666,126.71681681455175L154,128.11416590745574L156.33333333333334,129.37764537434168L158.66666666666666,130.0694238545093L161,130.7144738157341L163.33333333333334,129.7550648933428L165.66666666666666,129.61308512639732L168,130.50087771301932L170.33333333333331,131.444577017088L172.66666666666669,129.34385280010542L175,121.27136728352184L177.33333333333331,117.60881234820845L179.66666666666669,118.7076946755633L182,122.92681739931838L184.33333333333334,126.21586888193798L186.66666666666666,127.7727780722995L189,127.50472326628986L191.33333333333334,129.58554319650943L193.66666666666666,129.34656420294823L196,130.07632781763488L198.33333333333334,130.32980817074957L200.66666666666666,131.7122167137165L203,132.3602475587216L205.33333333333331,133.10314656444433L207.66666666666669,132.21906149820762L210,129.78316240097257L212.33333333333331,130.79238092859072L214.66666666666669,130.47989301870567L217,130.17479024945635L219.33333333333334,132.1786165272751L221.66666666666666,133.00202799995483L224,132.9011455743868L226.33333333333334,132.19830807620403L228.66666666666666,133.06311608539966L231,133.82241356038767L233.33333333333334,132.5256034226698L235.66666666666666,132.96105787772575L238,133.21625435689862L240.33333333333331,134.47922462389354L242.66666666666669,134.86990939509423L245,133.78127477213462L247.33333333333331,133.42599709033792L249.66666666666669,134.29447125270855L252,135.00789837725392L254.33333333333334,134.05763949663336" style="fill: none;" fill="none"></path></g></g></g></g><g opacity="0.2"><g><g><g><path stroke="rgb(187, 187, 187)" stroke-width="2px" d="M23.333333333333332,65.33273157477379L25.666666666666664,89.30874411761761L28,80.8897068798542L30.333333333333336,102.86359664797783L32.666666666666664,98.25473499298096L35,89.7059619128704L37.333333333333336,99.4783830344677L39.666666666666664,103.94713462144136L42,98.01357154548168L44.33333333333333,108.99739653617144L46.666666666666664,111.13209985941648L49,98.11793711781502L51.33333333333333,109.46539380401373L53.66666666666667,114.23000146448612L56,114.42209538817406L58.333333333333336,111.18190211057663L60.66666666666667,111.37238801270723L63,113.04861620813608L65.33333333333333,113.4344485476613L67.66666666666667,114.26448606699705L70,107.9020023047924L72.33333333333334,114.9147069901228L74.66666666666667,116.75792076438665L77,118.60099528729916L79.33333333333333,116.75428365170956L81.66666666666667,115.91403436660767L84,117.65986834466457L86.33333333333334,119.13738486170769L88.66666666666666,122.78176844865084L91,123.56110521405935L93.33333333333333,121.53222960233688L95.66666666666667,124.3883742839098L98,124.44201920926571L100.33333333333333,100.88344243168831L102.66666666666666,124.82676074653864L105,117.77862653881311L107.33333333333334,123.34755663573742L109.66666666666667,124.78307892382145L112,111.80839062482119L114.33333333333333,121.77352567017078L116.66666666666667,114.98386186361313L119,127.57799942791462L121.33333333333334,126.90565743297338L123.66666666666666,126.36227545142174L126,122.16357202082872L128.33333333333331,127.581493973732L130.66666666666666,126.46767214685678L133,120.41236360371113L135.33333333333334,111.56847380846739L137.66666666666666,123.632584258914L140,125.26842624694109L142.33333333333331,127.81556554883718L144.66666666666669,127.72788029909134L147,128.90933683887124L149.33333333333334,103.76763962954283L151.66666666666666,119.1100252866745L154,125.03771991282701L156.33333333333334,118.74564428627491L158.66666666666666,125.18103607743979L161,81.27923269569874L163.33333333333334,121.8032558336854L165.66666666666666,130.35460672155023L168,120.69158245623112L170.33333333333331,127.63241355121136L172.66666666666669,99.48247437179089L175,79.78860002756119L177.33333333333331,115.19045782089233L179.66666666666669,123.79484192281961L182,123.54905997216702L184.33333333333334,122.04165083169937L186.66666666666666,120.52007452398539L189,127.34802913665771L191.33333333333334,129.3401009477675L193.66666666666666,125.94462749361992L196,129.06676546484232L198.33333333333334,125.17771725356579L200.66666666666666,129.4567968957126L203,125.70495270937681L205.33333333333331,128.9713700003922L207.66666666666669,129.5841555185616L210,126.01335798203945L212.33333333333331,112.31464885920286L214.66666666666669,117.57999774813652L217,126.23230420798063L219.33333333333334,131.45862293243408L221.66666666666666,120.22198379784822L224,118.76304075866938L226.33333333333334,129.7320404537022L228.66666666666666,127.87070245295763L231,119.31379311531782L233.33333333333334,125.20635993033648L235.66666666666666,131.61852326989174L238,130.13817862421274L240.33333333333331,129.2938346862793L242.66666666666669,132.70903873071074L245,127.710702650249L247.33333333333331,130.96858913823962L249.66666666666669,115.85066505521536L252,123.90806984901428L254.33333333333334,122.95219884067774" style="fill: none;" fill="none"></path></g><g><path stroke="rgb(0, 153, 136)" stroke-width="2px" d="M23.333333333333332,23.96218952536583L25.666666666666664,79.69206568598747L28,81.49021838605404L30.333333333333336,96.92766298353672L32.666666666666664,102.67005053162575L35,104.78339203447104L37.333333333333336,95.81881110370159L39.666666666666664,104.15293485671282L42,105.29379465430975L44.33333333333333,101.81334637850523L46.666666666666664,110.30044437199831L49,115.37087120860815L51.33333333333333,115.73773220926523L53.66666666666667,116.25551846623421L56,118.6621034219861L58.333333333333336,115.95978506654501L60.66666666666667,117.54623924195766L63,113.57952524721622L65.33333333333333,119.53626704216003L67.66666666666667,121.05296623706818L70,120.10317255556583L72.33333333333334,121.7944100573659L74.66666666666667,121.62906565517187L77,120.9710135012865L79.33333333333333,123.23307213187218L81.66666666666667,117.40472339838743L84,127.27910634875298L86.33333333333334,124.68897816538811L88.66666666666666,125.92006289213896L91,126.84627667814493L93.33333333333333,125.10810152441263L95.66666666666667,127.8853006362915L98,128.6681883111596L100.33333333333333,123.68018832802773L102.66666666666666,119.29766316711903L105,126.47994284331799L107.33333333333334,127.03332439810038L109.66666666666667,128.06520012021065L112,126.88238919526339L114.33333333333333,122.78163914382458L116.66666666666667,126.44644626230001L119,127.99045529961586L121.33333333333334,131.97940143570304L123.66666666666666,133.38475757092237L126,132.93737779185176L128.33333333333331,131.1207510791719L130.66666666666666,132.45565266162157L133,132.0398149713874L135.33333333333334,132.34528270363808L137.66666666666666,130.2565306685865L140,132.24147745221853L142.33333333333331,131.94355415925384L144.66666666666669,132.18285926431417L147,133.26201247796416L149.33333333333334,130.70849082246423L151.66666666666666,118.26821108162403L154,130.4430810622871L156.33333333333334,131.48344448581338L158.66666666666666,131.22238798812032L161,131.78955708444118L163.33333333333334,128.1560500226915L165.66666666666666,129.37645218148828L168,131.98053202405572L170.33333333333331,133.01740919053555L172.66666666666669,125.84264577180147L175,107.81722475588322L177.33333333333331,111.50455412268639L179.66666666666669,120.53916522115469L182,129.95868860557675L184.33333333333334,131.6976213529706L186.66666666666666,130.36762672290206L189,127.05796525627375L191.33333333333334,133.05357641354203L193.66666666666666,128.9482658803463L196,131.2926005087793L198.33333333333334,130.75227542594075L200.66666666666666,134.01623095199466L203,133.44029896706343L205.33333333333331,134.34131157398224L207.66666666666669,130.7455863878131L210,125.7233305722475L212.33333333333331,132.4744118079543L214.66666666666669,129.9590798355639L217,129.66628563404083L219.33333333333334,135.51832699030638L221.66666666666666,134.37438045442104L224,132.73300819844007L226.33333333333334,131.02691224589944L228.66666666666666,134.5044627673924L231,135.08790935203433L233.33333333333334,130.36425319314003L235.66666666666666,133.686815302819L238,133.6415818221867L240.33333333333331,136.5841750688851L242.66666666666669,135.52105068042874L245,131.9668837338686L247.33333333333331,132.83386762067676L249.66666666666669,135.7419281899929L252,136.19694358482957L254.33333333333334,132.47387469559908" style="fill: none;" fill="none"></path></g></g></g></g></g></g><g transform="translate(50, 178)" clip-path="url(#clip_1)"><clipPath id="clip_1"><rect width="280" height="22"></rect></clipPath><g><g><line x1="0" y1="0" x2="0" y2="5" style="visibility: inherit;" fill="rgb(0, 0, 0)" stroke="rgb(204, 204, 204)" stroke-width="1px"></line><line x1="23.333333333333332" y1="0" x2="23.333333333333332" y2="5" style="visibility: inherit;" fill="rgb(0, 0, 0)" stroke="rgb(204, 204, 204)" stroke-width="1px"></line><line x1="46.666666666666664" y1="0" x2="46.666666666666664" y2="5" style="visibility: inherit;" fill="rgb(0, 0, 0)" stroke="rgb(204, 204, 204)" stroke-width="1px"></line><line x1="70" y1="0" x2="70" y2="5" style="visibility: inherit;" fill="rgb(0, 0, 0)" stroke="rgb(204, 204, 204)" stroke-width="1px"></line><line x1="93.33333333333333" y1="0" x2="93.33333333333333" y2="5" style="visibility: inherit;" fill="rgb(0, 0, 0)" stroke="rgb(204, 204, 204)" stroke-width="1px"></line><line x1="116.66666666666667" y1="0" x2="116.66666666666667" y2="5" style="visibility: inherit;" fill="rgb(0, 0, 0)" stroke="rgb(204, 204, 204)" stroke-width="1px"></line><line x1="140" y1="0" x2="140" y2="5" style="visibility: inherit;" fill="rgb(0, 0, 0)" stroke="rgb(204, 204, 204)" stroke-width="1px"></line><line x1="163.33333333333334" y1="0" x2="163.33333333333334" y2="5" style="visibility: inherit;" fill="rgb(0, 0, 0)" stroke="rgb(204, 204, 204)" stroke-width="1px"></line><line x1="186.66666666666666" y1="0" x2="186.66666666666666" y2="5" style="visibility: inherit;" fill="rgb(0, 0, 0)" stroke="rgb(204, 204, 204)" stroke-width="1px"></line><line x1="210" y1="0" x2="210" y2="5" style="visibility: inherit;" fill="rgb(0, 0, 0)" stroke="rgb(204, 204, 204)" stroke-width="1px"></line><line x1="233.33333333333334" y1="0" x2="233.33333333333334" y2="5" style="visibility: inherit;" fill="rgb(0, 0, 0)" stroke="rgb(204, 204, 204)" stroke-width="1px"></line><line x1="256.66666666666663" y1="0" x2="256.66666666666663" y2="5" style="visibility: inherit;" fill="rgb(0, 0, 0)" stroke="rgb(204, 204, 204)" stroke-width="1px"></line><line x1="280" y1="0" x2="280" y2="5" style="visibility: inherit;" fill="rgb(0, 0, 0)" stroke="rgb(204, 204, 204)" stroke-width="1px"></line></g><g transform="translate(0, 8)"><text x="0" y="0" dx="0em" dy="0.95em" style="text-anchor: middle; visibility: hidden; font-family: &quot;Helvetica Neue&quot;, sans-serif; font-size: 12px; font-weight: 200;" fill="rgb(50, 49, 63)" stroke="none" stroke-width="1px">-10</text><text x="23.333333333333332" y="0" dx="0em" dy="0.95em" style="text-anchor: middle; visibility: inherit; font-family: &quot;Helvetica Neue&quot;, sans-serif; font-size: 12px; font-weight: 200;" fill="rgb(50, 49, 63)" stroke="none" stroke-width="1px">0</text><text x="46.666666666666664" y="0" dx="0em" dy="0.95em" style="text-anchor: middle; visibility: inherit; font-family: &quot;Helvetica Neue&quot;, sans-serif; font-size: 12px; font-weight: 200;" fill="rgb(50, 49, 63)" stroke="none" stroke-width="1px">10</text><text x="70" y="0" dx="0em" dy="0.95em" style="text-anchor: middle; visibility: inherit; font-family: &quot;Helvetica Neue&quot;, sans-serif; font-size: 12px; font-weight: 200;" fill="rgb(50, 49, 63)" stroke="none" stroke-width="1px">20</text><text x="93.33333333333333" y="0" dx="0em" dy="0.95em" style="text-anchor: middle; visibility: inherit; font-family: &quot;Helvetica Neue&quot;, sans-serif; font-size: 12px; font-weight: 200;" fill="rgb(50, 49, 63)" stroke="none" stroke-width="1px">30</text><text x="116.66666666666667" y="0" dx="0em" dy="0.95em" style="text-anchor: middle; visibility: inherit; font-family: &quot;Helvetica Neue&quot;, sans-serif; font-size: 12px; font-weight: 200;" fill="rgb(50, 49, 63)" stroke="none" stroke-width="1px">40</text><text x="140" y="0" dx="0em" dy="0.95em" style="text-anchor: middle; visibility: inherit; font-family: &quot;Helvetica Neue&quot;, sans-serif; font-size: 12px; font-weight: 200;" fill="rgb(50, 49, 63)" stroke="none" stroke-width="1px">50</text><text x="163.33333333333334" y="0" dx="0em" dy="0.95em" style="text-anchor: middle; visibility: inherit; font-family: &quot;Helvetica Neue&quot;, sans-serif; font-size: 12px; font-weight: 200;" fill="rgb(50, 49, 63)" stroke="none" stroke-width="1px">60</text><text x="186.66666666666666" y="0" dx="0em" dy="0.95em" style="text-anchor: middle; visibility: inherit; font-family: &quot;Helvetica Neue&quot;, sans-serif; font-size: 12px; font-weight: 200;" fill="rgb(50, 49, 63)" stroke="none" stroke-width="1px">70</text><text x="210" y="0" dx="0em" dy="0.95em" style="text-anchor: middle; visibility: inherit; font-family: &quot;Helvetica Neue&quot;, sans-serif; font-size: 12px; font-weight: 200;" fill="rgb(50, 49, 63)" stroke="none" stroke-width="1px">80</text><text x="233.33333333333334" y="0" dx="0em" dy="0.95em" style="text-anchor: middle; visibility: inherit; font-family: &quot;Helvetica Neue&quot;, sans-serif; font-size: 12px; font-weight: 200;" fill="rgb(50, 49, 63)" stroke="none" stroke-width="1px">90</text><text x="256.66666666666663" y="0" dx="0em" dy="0.95em" style="text-anchor: middle; visibility: inherit; font-family: &quot;Helvetica Neue&quot;, sans-serif; font-size: 12px; font-weight: 200;" fill="rgb(50, 49, 63)" stroke="none" stroke-width="1px">100</text><text x="280" y="0" dx="0em" dy="0.95em" style="text-anchor: middle; visibility: hidden; font-family: &quot;Helvetica Neue&quot;, sans-serif; font-size: 12px; font-weight: 200;" fill="rgb(50, 49, 63)" stroke="none" stroke-width="1px">110</text></g><line x1="0" y1="0" x2="280" y2="0" fill="rgb(0, 0, 0)" stroke="rgb(204, 204, 204)" stroke-width="1px"></line></g></g></g></g></svg>